#N canvas 0 22 961 1004 10;
#X obj 82 103 adc~;
#X obj 297 121 loadbang;
#X obj 290 578 dac~;
#X text 431 375 simple delayline to test filter;
#X msg 297 142 500;
#X obj 297 471 *~ 0.45;
#X obj 297 184 line~ 500;
#X obj 299 375 vd~ \$0-mydel 200;
#X obj 78 492 delwrite~ \$0-mydel 2000;
#X connect 0 0 8 0;
#X connect 0 1 8 0;
#X connect 1 0 4 0;
#X connect 4 0 6 0;
#X connect 5 0 2 0;
#X connect 5 0 2 1;
#X connect 5 0 8 0;
#X connect 6 0 7 0;
#X connect 7 0 5 0;
